<mxfile host="app.diagrams.net" agent="Mozilla/5.0 (Windows NT 10.0; Win64; x64) AppleWebKit/537.36 (KHTML, like Gecko) Chrome/128.0.0.0 Safari/537.36 OPR/114.0.0.0" version="24.8.6">
  <diagram name="Page-1" id="-5a_yTGB8BfFHetPTBox">
    <mxGraphModel dx="3700" dy="2105" grid="0" gridSize="10" guides="1" tooltips="1" connect="1" arrows="1" fold="1" page="1" pageScale="1" pageWidth="1654" pageHeight="1169" background="#000000" math="0" shadow="0">
      <root>
        <mxCell id="0" />
        <mxCell id="1" parent="0" />
        <mxCell id="PgtVWtilIE-5q3GnIlGc-2" value="" style="ellipse;whiteSpace=wrap;html=1;aspect=fixed;fillColor=#ff0000;strokeColor=#ff0000;" parent="1" vertex="1">
          <mxGeometry x="1470" y="992" width="150" height="150" as="geometry" />
        </mxCell>
        <mxCell id="bAGUh_GjZapJnkl1ijTH-1" value="" style="rounded=0;whiteSpace=wrap;html=1;rotation=0;fillColor=#ff0000;" vertex="1" parent="1">
          <mxGeometry x="35.12" y="425" width="784.88" height="73" as="geometry" />
        </mxCell>
        <mxCell id="bAGUh_GjZapJnkl1ijTH-9" value="" style="ellipse;whiteSpace=wrap;html=1;aspect=fixed;fillColor=#ff0000;strokeColor=#ff0000;" vertex="1" parent="1">
          <mxGeometry x="20" y="15" width="150" height="150" as="geometry" />
        </mxCell>
        <mxCell id="bAGUh_GjZapJnkl1ijTH-10" value="" style="verticalLabelPosition=bottom;verticalAlign=top;html=1;shape=mxgraph.basic.orthogonal_triangle;fillColor=#FF0000;rotation=0;direction=south;flipV=0;flipH=1;" vertex="1" parent="1">
          <mxGeometry x="1435" y="40" width="177" height="173" as="geometry" />
        </mxCell>
      </root>
    </mxGraphModel>
  </diagram>
</mxfile>
